<svg width="139" height="25" viewBox="0 0 139 25" fill="none" xmlns="http://www.w3.org/2000/svg">
    <g clip-path="url(#e8atvgey1a)">
        <path d="M71.74 21.484 66.301 9.208h3.54l3.68 8.3-1.783 3.976zM83.275.5h3.85L76.48 24.252h-3.779L83.275.5z" fill="#00754A"/>
        <path d="M12.662 11.578C11.485 9.961 9.66 9.111 7.359 9.111 3.026 9.109 0 12.25 0 16.748 0 21.247 2.98 24.5 7.414 24.5c2.3 0 4.106-.84 5.246-2.435v2.295h3.516V3.369H12.66v8.21h.002zm0 5.282c0 2.79-1.875 4.737-4.559 4.737-2.683 0-4.558-1.948-4.587-4.734.029-2.822 1.915-4.793 4.587-4.793 2.673 0 4.559 1.971 4.559 4.793v-.003zM26.536 9.137c-4.6.028-7.816 3.192-7.816 7.695s3.176 7.64 7.902 7.64c2.615 0 4.824-.883 6.383-2.556l.069-.073-1.898-1.976-.08.083c-1.095 1.098-2.592 1.703-4.218 1.703-2.299 0-4.043-1.34-4.587-3.508h11.48l.007-.1c.232-3.095-.384-5.433-1.826-6.95-1.235-1.298-3.057-1.956-5.418-1.956l.002-.002zm-4.309 6.44c.404-2.255 2.056-3.649 4.34-3.649 2.396 0 3.967 1.394 4.123 3.648H22.227zM47.447 19.73c-1.007 1.148-2.533 1.754-4.413 1.754-2.6 0-4.415-1.912-4.415-4.652 0-2.739 1.816-4.651 4.417-4.651 1.699-.028 3.174.544 4.274 1.647l.084.084 1.946-2.232-.062-.07c-1.449-1.616-3.657-2.473-6.385-2.473-4.585 0-7.788 3.164-7.788 7.695 0 4.531 3.203 7.64 7.788 7.64 2.858 0 5.126-.974 6.562-2.815l.057-.076-1.985-1.94-.078.088h-.002zM58.207 9.137c-4.83 0-8.074 3.08-8.074 7.667 0 4.588 3.32 7.668 8.074 7.668 4.755 0 8.046-3.154 8.046-7.668 0-4.513-3.233-7.667-8.046-7.667zm4.53 7.695c0 2.79-1.862 4.737-4.53 4.737s-4.558-1.947-4.558-4.736c0-2.79 1.875-4.709 4.558-4.709 2.684 0 4.53 1.937 4.53 4.708zM90.634 9.137c-4.6.028-7.816 3.192-7.816 7.695s3.176 7.64 7.902 7.64c2.615 0 4.823-.883 6.383-2.556l.068-.073-1.897-1.976-.08.083c-1.095 1.098-2.592 1.703-4.218 1.703-2.299 0-4.044-1.34-4.587-3.508h11.48l.007-.1c.232-3.095-.385-5.433-1.827-6.95-1.234-1.298-3.056-1.956-5.417-1.956l.002-.002zm-4.31 6.44c.405-2.255 2.057-3.649 4.34-3.649 2.397 0 3.967 1.394 4.124 3.648H86.325zM103.852 11.898V9.249h-3.516v15.11h3.516v-7.88c.265-2.615 2.288-4.201 5.155-4.048l.117.006V9.135h-.11c-2.306 0-4.082.952-5.16 2.76l-.002.003zM116.514 15.203c-1.588-.464-2.959-.866-2.959-1.926 0-1.137 1.155-1.377 2.124-1.377 1.339 0 2.995.498 4.325 1.3l.104.062 1.298-2.569-.077-.054c-1.365-.945-3.43-1.532-5.391-1.532-4.221 0-5.725 2.283-5.725 4.418-.018 3.148 2.712 3.946 4.905 4.588 1.657.483 3.088.902 3.088 2.132 0 1.343-1.665 1.488-2.381 1.488-1.729 0-3.794-.75-5.024-1.82l-.109-.093-1.276 2.495.062.054c1.462 1.296 3.84 2.1 6.204 2.1 2.747 0 5.954-1.187 5.954-4.53.018-3.238-2.832-4.07-5.12-4.739l-.002.003zM135.978 11.093c-1.234-1.298-3.056-1.956-5.417-1.956-4.601.028-7.816 3.192-7.816 7.695s3.175 7.64 7.902 7.64c2.615 0 4.823-.883 6.383-2.556l.068-.073-1.897-1.976-.08.083c-1.095 1.098-2.592 1.703-4.218 1.703-2.299 0-4.044-1.34-4.587-3.508h11.48l.007-.1c.232-3.095-.385-5.433-1.827-6.95l.002-.002zm-9.726 4.483c.404-2.254 2.056-3.648 4.34-3.648 2.396 0 3.966 1.394 4.123 3.648H126.252z" fill="#0E0E10"/>
    </g>
    <defs>
        <clipPath id="e8atvgey1a">
            <path fill="#fff" transform="translate(0 .5)" d="M0 0h138.122v24H0z"/>
        </clipPath>
    </defs>
</svg>
